<?xml version="1.0" encoding="UTF-8"?>
<svg version="1.1" xmlns="http://www.w3.org/2000/svg" width="147" height="183">
<path d="M0 0 C48.51 0 97.02 0 147 0 C147 60.39 147 120.78 147 183 C98.49 183 49.98 183 0 183 C0 122.61 0 62.22 0 0 Z " fill="#F3F4F8" transform="translate(0,0)"/>
<path d="M0 0 C5.79878154 0.51544725 9.92221608 1.92221608 14 6 C16.28978567 7.42532726 18.63213883 8.70437785 21 10 C21 10.66 21 11.32 21 12 C21.58394531 12.29003906 22.16789062 12.58007812 22.76953125 12.87890625 C24.12756604 13.56149116 25.48064506 14.25421698 26.82421875 14.96484375 C31.10021649 17.19696836 35.26627371 18.82099569 39.921875 20.09375 C42.56497754 21.24638118 43.97844994 22.95224466 46 25 C47.96263929 26.28798203 49.96601959 27.51541879 52 28.6875 C53.03125 29.28949219 54.0625 29.89148438 55.125 30.51171875 C58.08681141 32.18504801 58.08681141 32.18504801 62 33 C62 47.52 62 62.04 62 77 C51 83 51 83 46.1640625 85.6328125 C44.65082759 86.46315165 43.13780375 87.29387558 41.625 88.125 C40.85800781 88.54136719 40.09101562 88.95773438 39.30078125 89.38671875 C35.20581479 91.64284017 31.6335763 94.03663126 28 97 C26 97.66666667 24 98.33333333 22 99 C21.34 99.99 20.68 100.98 20 102 C17.79296875 103.0625 17.79296875 103.0625 15.1875 104 C12.24909259 105.0856598 10.04794716 105.96523831 7.5 107.8125 C3.37930888 109.76982828 -0.65238299 109.07073543 -5 108 C-7.8125 106.125 -7.8125 106.125 -10 104 C-12.97513524 102.0407646 -15.48556658 100.650821 -19 100 C-19 99.34 -19 98.68 -19 98 C-19.763125 97.896875 -20.52625 97.79375 -21.3125 97.6875 C-24.26578515 96.93200845 -24.95867834 96.13007477 -27 94 C-28.32860925 93.64830932 -29.66158328 93.31229724 -31 93 C-31.495 92.01 -31.495 92.01 -32 91 C-33.423125 90.5359375 -33.423125 90.5359375 -34.875 90.0625 C-38 89 -38 89 -39.44921875 87.53515625 C-41.20990373 85.79221117 -42.61233948 85.18724417 -44.9375 84.375 C-45.60652344 84.13523437 -46.27554688 83.89546875 -46.96484375 83.6484375 C-49.00443031 82.96786931 -49.00443031 82.96786931 -51.15625 82.50390625 C-53.48912603 81.86631937 -54.38066104 80.76015104 -56 79 C-56.99 78.34 -57.98 77.68 -59 77 C-59.29296875 73.9609375 -59.29296875 73.9609375 -59.1875 70.375 C-59.14689453 68.59222656 -59.14689453 68.59222656 -59.10546875 66.7734375 C-59.07066406 65.85820313 -59.03585938 64.94296875 -59 64 C-58.40832031 63.74605469 -57.81664062 63.49210937 -57.20703125 63.23046875 C-52.07675842 60.99870089 -52.07675842 60.99870089 -47.25 58.1875 C-45 57 -45 57 -42.25 57.25 C-40 58 -40 58 -39 59 C-38.63239269 61.32817964 -38.29758419 63.6618385 -38 66 C-36.515 66.495 -36.515 66.495 -35 67 C-35 67.66 -35 68.32 -35 69 C-34.07767578 69.29003906 -34.07767578 69.29003906 -33.13671875 69.5859375 C-32.32847656 69.84632812 -31.52023438 70.10671875 -30.6875 70.375 C-29.88699219 70.63023438 -29.08648437 70.88546875 -28.26171875 71.1484375 C-26 72 -26 72 -23 74 C-23 74.66 -23 75.32 -23 76 C-21.824375 76.309375 -21.824375 76.309375 -20.625 76.625 C-17.44226682 77.83224362 -14.99431498 79.15303405 -12.125 80.9375 C-5.10437144 85.52133313 -5.10437144 85.52133313 2.88671875 86.74609375 C5.57603378 85.79663133 7.9467472 84.51374151 10.4375 83.125 C11.36433594 82.61195313 12.29117188 82.09890625 13.24609375 81.5703125 C15.08588373 80.52124076 16.9091814 79.44271759 18.71484375 78.3359375 C21 77 21 77 23.125 76.5 C25.07022099 76.14898238 25.07022099 76.14898238 26.3125 74.6875 C28.91199395 72.08800605 31.71590744 70.67085411 35 69 C36.32 69 37.64 69 39 69 C39 68.34 39 67.68 39 67 C39.99 67 40.98 67 42 67 C42 59.41 42 51.82 42 44 C40.35 43.67 38.7 43.34 37 43 C30.52866242 40.05732484 30.52866242 40.05732484 29 37 C27.46878654 36.33879419 25.93395618 35.68528739 24.38671875 35.0625 C19.10234333 32.71004482 14.06770548 29.78152255 9 27 C9 26.34 9 25.68 9 25 C8.35675781 24.93296875 7.71351562 24.8659375 7.05078125 24.796875 C2.67749861 23.6545579 -0.92060275 21.50749614 -4.8125 19.25 C-5.60076172 18.81945312 -6.38902344 18.38890625 -7.20117188 17.9453125 C-9.28791127 16.73843638 -11.18343156 15.58508221 -13 14 C-13.609375 11.3046875 -13.609375 11.3046875 -13 9 C-10.10583878 5.06394073 -6.42929663 3.80452826 -2 2 C-1.34 1.34 -0.68 0.68 0 0 Z " fill="#7B7EF5" transform="translate(73,54)"/>
<path d="M0 0 C3.25 1.875 3.25 1.875 6 4 C7.051875 4.350625 8.10375 4.70125 9.1875 5.0625 C12 6 12 6 13.21875 7.29296875 C15.89234575 9.85516468 19.09186197 11.47430097 22.3125 13.25 C23.02092041 13.64477539 23.72934082 14.03955078 24.45922852 14.44628906 C30.17852468 17.60730521 35.99180057 20.54393998 41.8515625 23.43359375 C53.65235343 29.30470685 53.65235343 29.30470685 55 32 C55.65919955 35.8059446 55.81928011 39.21215951 55 43 C52.46663681 46.07213273 49.74394434 47.69625359 46 49 C42.99666987 49.1676736 40.95982894 48.753411 38 48 C37.81695312 47.26394531 37.63390625 46.52789062 37.4453125 45.76953125 C35.46749925 41.97961342 32.53255491 40.59594697 28.875 38.6875 C27.88693359 38.14899414 27.88693359 38.14899414 26.87890625 37.59960938 C25.25981704 36.71966959 23.6308255 35.85799305 22 35 C22 34.34 22 33.68 22 33 C20.948125 32.814375 20.948125 32.814375 19.875 32.625 C16.82343613 31.96161655 13.94659062 31.02788045 11 30 C11 29.34 11 28.68 11 28 C10.154375 27.7525 9.30875 27.505 8.4375 27.25 C5.73960175 26.26894609 3.87367613 25.36581663 1.5 23.875 C-2.11355695 21.93916592 -3.98629706 21.60841923 -8 22 C-8.495 23.485 -8.495 23.485 -9 25 C-11.97 25.495 -11.97 25.495 -15 26 C-15.495 27.485 -15.495 27.485 -16 29 C-18.66015625 30.2109375 -18.66015625 30.2109375 -22.0625 31.375 C-27.6092974 33.3803806 -32.09816655 35.76294018 -37 39 C-37.66 39 -38.32 39 -39 39 C-39 39.66 -39 40.32 -39 41 C-42 43 -42 43 -45 43 C-45 50.26 -45 57.52 -45 65 C-42.36 65.66 -39.72 66.32 -37 67 C-34.46875 68.21875 -34.46875 68.21875 -32.5 69.5 C-31.8296875 69.9228125 -31.159375 70.345625 -30.46875 70.78125 C-29.9840625 71.1834375 -29.499375 71.585625 -29 72 C-29 72.66 -29 73.32 -29 74 C-28.40832031 74.17015625 -27.81664062 74.3403125 -27.20703125 74.515625 C-26.02173828 74.87914063 -26.02173828 74.87914063 -24.8125 75.25 C-24.03519531 75.48203125 -23.25789063 75.7140625 -22.45703125 75.953125 C-20 77 -20 77 -17.74609375 78.8359375 C-14.82414311 81.13858423 -11.86429888 82.88029066 -8.60546875 84.671875 C-8.01325027 84.99915588 -7.4210318 85.32643677 -6.81086731 85.66363525 C-4.93882417 86.69687681 -3.06326107 87.72352646 -1.1875 88.75 C0.09073417 89.45399261 1.36873141 90.15841561 2.64648438 90.86328125 C5.76160006 92.58050363 8.87990507 94.29183772 12 96 C11.27246094 100.78369141 11.27246094 100.78369141 8.8203125 102.73046875 C7.48613281 103.45169922 7.48613281 103.45169922 6.125 104.1875 C5.24070312 104.67605469 4.35640625 105.16460937 3.4453125 105.66796875 C2.63835937 106.10753906 1.83140625 106.54710938 1 107 C0.01 107.66 -0.98 108.32 -2 109 C-5.78071233 108.65823196 -8.54661365 107.34101908 -11.80078125 105.453125 C-12.69603516 104.9375 -13.59128906 104.421875 -14.51367188 103.890625 C-15.43728516 103.34921875 -16.36089844 102.8078125 -17.3125 102.25 C-18.22451172 101.7240625 -19.13652344 101.198125 -20.07617188 100.65625 C-24.86080486 97.88493569 -29.5878496 95.04742339 -34.23510742 92.05102539 C-37.03935756 90.38104381 -39.96854669 89.19995027 -43 88 C-43 87.34 -43 86.68 -43 86 C-43.7425 85.896875 -44.485 85.79375 -45.25 85.6875 C-48.25801106 84.93549724 -49.56259304 83.86389944 -52 82 C-53.11375 81.525625 -54.2275 81.05125 -55.375 80.5625 C-61.92255594 77.74027761 -61.92255594 77.74027761 -65 75 C-65.87555209 71.77362625 -65.77012341 68.63348816 -65.69140625 65.30859375 C-65.69003159 64.36693863 -65.68865692 63.42528351 -65.6872406 62.45509338 C-65.67818764 60.46709837 -65.6545708 58.47912376 -65.61743164 56.49145508 C-65.5626297 53.44471096 -65.55590275 50.40070133 -65.55664062 47.35351562 C-65.54189479 45.4218513 -65.52440966 43.49020554 -65.50390625 41.55859375 C-65.50056778 40.64605331 -65.49722931 39.73351288 -65.49378967 38.7933197 C-65.47465012 37.94556473 -65.45551056 37.09780975 -65.43579102 36.22436523 C-65.42435562 35.47920151 -65.41292023 34.73403778 -65.40113831 33.96629333 C-64.89127013 31.46702967 -63.97073639 30.5721977 -62 29 C-59.92159753 28.35302647 -57.88416777 28.00161192 -55.7421875 27.625 C-55.16726562 27.41875 -54.59234375 27.2125 -54 27 C-53.67 26.01 -53.34 25.02 -53 24 C-50.30674785 22.82921435 -47.56670556 22.02524564 -44.76171875 21.16015625 C-41.90397982 20.16438716 -41.90397982 20.16438716 -39.93359375 17.93359375 C-37.19243567 15.19243567 -34.74248093 15.18172504 -31.0234375 14.6875 C-28.81870855 14.18990227 -28.81870855 14.18990227 -27.8984375 12.03515625 C-27.60195313 11.36355469 -27.30546875 10.69195312 -27 10 C-24.25 8.4375 -24.25 8.4375 -21 7 C-19.9275 6.443125 -18.855 5.88625 -17.75 5.3125 C-15 4 -15 4 -13 4 C-13 3.34 -13 2.68 -13 2 C-8.75376006 -0.83082662 -4.9881858 -0.65572395 0 0 Z " fill="#4C99F1" transform="translate(79,11)"/>
<path d="M0 0 C5.79878154 0.51544725 9.92221608 1.92221608 14 6 C16.28978567 7.42532726 18.63213883 8.70437785 21 10 C21 10.66 21 11.32 21 12 C21.87591797 12.43505859 21.87591797 12.43505859 22.76953125 12.87890625 C24.12756604 13.56149116 25.48064506 14.25421698 26.82421875 14.96484375 C31.10021649 17.19696836 35.26627371 18.82099569 39.921875 20.09375 C42.56497754 21.24638118 43.97844994 22.95224466 46 25 C47.96263929 26.28798203 49.96601959 27.51541879 52 28.6875 C53.03125 29.28949219 54.0625 29.89148438 55.125 30.51171875 C58.08681141 32.18504801 58.08681141 32.18504801 62 33 C62 47.52 62 62.04 62 77 C61.34 77 60.68 77 60 77 C59.67 64.46 59.34 51.92 59 39 C48.93638924 41.78168711 48.93638924 41.78168711 46 45 C45.71216473 47.04955217 45.71216473 47.04955217 45.76171875 49.39453125 C45.74560547 50.26787109 45.72949219 51.14121094 45.71289062 52.04101562 C45.69607154 53.87688347 45.6907134 55.71289493 45.69726562 57.54882812 C45.54320754 64.31247494 45.54320754 64.31247494 42.6328125 67.99609375 C41.76398438 68.65738281 40.89515625 69.31867188 40 70 C39.071875 70.7425 38.14375 71.485 37.1875 72.25 C33.26004003 74.40625253 30.4398303 74.69380481 26 75 C33.71428571 69 33.71428571 69 39 69 C39 68.34 39 67.68 39 67 C39.99 67 40.98 67 42 67 C42 59.41 42 51.82 42 44 C40.35 43.67 38.7 43.34 37 43 C30.52866242 40.05732484 30.52866242 40.05732484 29 37 C27.46878654 36.33879419 25.93395618 35.68528739 24.38671875 35.0625 C19.10234333 32.71004482 14.06770548 29.78152255 9 27 C9 26.34 9 25.68 9 25 C8.35675781 24.93296875 7.71351562 24.8659375 7.05078125 24.796875 C2.67749861 23.6545579 -0.92060275 21.50749614 -4.8125 19.25 C-5.60076172 18.81945312 -6.38902344 18.38890625 -7.20117188 17.9453125 C-9.28791127 16.73843638 -11.18343156 15.58508221 -13 14 C-13.609375 11.3046875 -13.609375 11.3046875 -13 9 C-10.10583878 5.06394073 -6.42929663 3.80452826 -2 2 C-1.34 1.34 -0.68 0.68 0 0 Z " fill="#52A8F1" transform="translate(73,54)"/>
<path d="M0 0 C2 1 2 1 3 3 C2.34 3.66 1.68 4.32 1 5 C0.30733715 8.28071498 0.21554814 11.65821721 0 15 C-0.07782715 16.16595703 -0.1556543 17.33191406 -0.23583984 18.53320312 C-0.41784295 21.77010963 -0.54571825 25.00124846 -0.62475586 28.2421875 C-0.66683247 29.58863898 -0.72859961 30.93460908 -0.80932617 32.27929688 C-1.06790473 36.68526218 -1.14400284 40.72144265 0 45 C2.9844532 47.95947066 6.07605718 49.55990723 10 51 C7.42289278 51.9737525 6.29691363 52.11076479 3.67523193 51.13273621 C-2.50646349 47.33456188 -2.50646349 47.33456188 -3.80944824 43.81118774 C-4.09279175 41.20330289 -4.0922226 38.73430329 -3.984375 36.11328125 C-3.97875549 35.17445602 -3.97313599 34.2356308 -3.96734619 33.26835632 C-3.94724524 31.29210237 -3.9056168 29.31596379 -3.84375 27.34057617 C-3.74996019 24.31121425 -3.72080945 21.28653153 -3.703125 18.25585938 C-3.67562364 16.33327606 -3.64449899 14.41074042 -3.609375 12.48828125 C-3.59662537 11.58201492 -3.58387573 10.6757486 -3.57073975 9.74201965 C-3.54191711 8.90072006 -3.51309448 8.05942047 -3.48339844 7.19262695 C-3.46291443 6.45349564 -3.44243042 5.71436432 -3.42132568 4.95283508 C-2.89485191 2.51264097 -1.88007428 1.58353376 0 0 Z " fill="#9194F8" transform="translate(17,40)"/>
<path d="M0 0 C1.32 0 2.64 0 4 0 C4 14.52 4 29.04 4 44 C3.34 44 2.68 44 2 44 C1.67 31.46 1.34 18.92 1 6 C-0.32 5.67 -1.64 5.34 -3 5 C-2.01 4.34 -1.02 3.68 0 3 C0 2.01 0 1.02 0 0 Z " fill="#83D0F1" transform="translate(131,87)"/>
<path d="M0 0 C1.9375 0.375 1.9375 0.375 4 1 C6.03695339 5.07390677 5.94805454 9.61678678 5 14 C2.46663681 17.07213273 -0.25605566 18.69625359 -4 20 C-7.00333013 20.1676736 -9.04017106 19.753411 -12 19 C-12.3403125 17.88625 -12.3403125 17.88625 -12.6875 16.75 C-14.24407532 13.48860409 -16.08518854 12.07105025 -19 10 C-14.25 10.75 -14.25 10.75 -12 13 C-12 13.99 -12 14.98 -12 16 C-8.64541845 16.76522801 -8.64541845 16.76522801 -5 17 C-3.27056525 15.68732044 -3.27056525 15.68732044 -2 14 C-0.68 13.67 0.64 13.34 2 13 C2.33 10.03 2.66 7.06 3 4 C2.01 3.34 1.02 2.68 0 2 C0 1.34 0 0.68 0 0 Z " fill="#54DEE7" transform="translate(129,40)"/>
<path d="M0 0 C3.3125 -0.1875 3.3125 -0.1875 7 0 C8.02055138 0.97901731 9.01637102 1.98389271 10 3 C13.11863458 4.87452065 16.29456373 6.6215565 19.48046875 8.37890625 C20.31191406 8.91386719 21.14335938 9.44882812 22 10 C22 10.66 22 11.32 22 12 C20.68 11.67 19.36 11.34 18 11 C18 10.34 18 9.68 18 9 C17.154375 8.7525 16.30875 8.505 15.4375 8.25 C12.73960175 7.26894609 10.87367613 6.36581663 8.5 4.875 C4.88644305 2.93916592 3.01370294 2.60841923 -1 3 C-1.33 3.99 -1.66 4.98 -2 6 C-3.98 6.33 -5.96 6.66 -8 7 C-8.33 7.99 -8.66 8.98 -9 10 C-10.32 9.67 -11.64 9.34 -13 9 C-12.01 8.67 -11.02 8.34 -10 8 C-9.54625 7.54625 -9.0925 7.0925 -8.625 6.625 C-6.61634983 4.61634983 -4.49476227 3.34333353 -2 2 C-1.34 2 -0.68 2 0 2 C0 1.34 0 0.68 0 0 Z " fill="#52CBEE" transform="translate(72,30)"/>
<path d="M0 0 C3.84261299 0.69420956 6.84218437 2.44162117 10.2265625 4.34375 C11.10989761 4.83748108 11.10989761 4.83748108 12.01107788 5.34118652 C13.88488345 6.38973965 15.754992 7.44469183 17.625 8.5 C19.50295237 9.55382537 21.38162497 10.60635827 23.26034546 11.65881348 C24.96068076 12.61229652 26.65933706 13.56877185 28.35791016 14.52539062 C29.88906881 15.37996448 31.43162675 16.21581338 33 17 C33 17.66 33 18.32 33 19 C28.67493785 17.72343981 25.29424803 16.08102371 21.5625 13.5625 C17.46208027 10.87370017 13.57992981 8.73019571 9 7 C9 6.34 9 5.68 9 5 C8.2575 4.9175 7.515 4.835 6.75 4.75 C3.48778646 3.8603054 2.19045122 2.51496251 0 0 Z " fill="#9587F4" transform="translate(27,92)"/>
<path d="M0 0 C0.33 0 0.66 0 1 0 C1.26260373 3.70697705 1.42156838 7.41156358 1.5625 11.125 C1.63791016 12.17171875 1.71332031 13.2184375 1.79101562 14.296875 C2.00764201 21.90286819 2.00764201 21.90286819 -0.88305664 25.05029297 C-5.83480377 28.47540037 -10.01080434 29.78221107 -16 30 C-8.28571429 24 -8.28571429 24 -3 24 C-3 23.34 -3 22.68 -3 22 C-2.01 22 -1.02 22 0 22 C0 14.74 0 7.48 0 0 Z " fill="#92BFF4" transform="translate(115,99)"/>
<path d="M0 0 C1 1 1 1 1.375 4.4375 C1.58125 5.613125 1.7875 6.78875 2 8 C2.99 8.66 3.98 9.32 5 10 C0.25 9.25 0.25 9.25 -2 7 C-2.125 3.875 -2.125 3.875 -2 1 C-6.455 2.485 -6.455 2.485 -11 4 C-7.03836125 -0.09369337 -5.66446619 -1.45242723 0 0 Z " fill="#AB7EF5" transform="translate(33,112)"/>
<path d="M0 0 C4.42415392 1.74706274 8.81205555 3.57249155 13.1875 5.4375 C13.91130859 5.73720703 14.63511719 6.03691406 15.38085938 6.34570312 C18.97168449 7.88558255 20.78564513 8.67846769 23 12 C15.24473784 11.36432277 15.24473784 11.36432277 12 8 C9.17645442 6.37294221 6.29443819 4.8959504 3.3984375 3.40234375 C1 2 1 2 0 0 Z " fill="#53DBE9" transform="translate(106,28)"/>
<path d="M0 0 C0.33 0 0.66 0 1 0 C0.95617188 0.79664062 0.91234375 1.59328125 0.8671875 2.4140625 C0.87556357 5.85662591 1.04248403 8.68454821 2 12 C5.00434106 14.79449782 8.22595277 16.43832528 12 18 C9.54643848 18.89521839 8.35698203 19.12637685 5.859375 18.2421875 C3.39913102 16.64758492 1.7455336 15.37725053 0 13 C-0.68981622 8.5893569 -0.47289928 4.42686271 0 0 Z " fill="#9980F5" transform="translate(15,73)"/>
<path d="M0 0 C0 0.66 0 1.32 0 2 C-0.639375 2.474375 -1.27875 2.94875 -1.9375 3.4375 C-4.28372963 4.9091365 -4.28372963 4.9091365 -5 8 C-3.35 8.33 -1.7 8.66 0 9 C0.33 9.99 0.66 10.98 1 12 C-3.75 10.125 -3.75 10.125 -6 9 C-6.25 6.75 -6.25 6.75 -6 4 C-2.75675676 0 -2.75675676 0 0 0 Z " fill="#81A5F6" transform="translate(66,59)"/>
<path d="M0 0 C3.21460285 0.66204635 5.81002167 1.80546637 8.6875 3.375 C9.86892578 4.00535156 9.86892578 4.00535156 11.07421875 4.6484375 C13 6 13 6 14 9 C11.525 8.01 11.525 8.01 9 7 C9 6.34 9 5.68 9 5 C8.2575 4.9175 7.515 4.835 6.75 4.75 C3.48778646 3.8603054 2.19045122 2.51496251 0 0 Z " fill="#A998F6" transform="translate(27,92)"/>
<path d="M0 0 C9.6402439 -0.56707317 9.6402439 -0.56707317 14 3 C14.99 4.485 14.99 4.485 16 6 C10.25 4.25 10.25 4.25 8 2 C5.34462628 1.43479997 2.70855287 1.26211802 0 1 C0 0.67 0 0.34 0 0 Z " fill="#9CE7F3" transform="translate(71,10)"/>
<path d="M0 0 C0 0.66 0 1.32 0 2 C-3.67996503 4.45331002 -5.65413172 4.39507893 -10 4 C-10.66 3.01 -11.32 2.02 -12 1 C-9.98177083 1.03255208 -7.96354167 1.06510417 -5.9453125 1.09765625 C-3.67210333 0.98353932 -2.2885712 0 0 0 Z " fill="#D5C8FB" transform="translate(82,161)"/>
<path d="M0 0 C0.66 0.33 1.32 0.66 2 1 C-3.625 5 -3.625 5 -7 5 C-7.33 5.99 -7.66 6.98 -8 8 C-9.32 7.67 -10.64 7.34 -12 7 C-10.56542672 6.0165504 -9.12722594 5.03839079 -7.6875 4.0625 C-6.88699219 3.51722656 -6.08648437 2.97195312 -5.26171875 2.41015625 C-3 1 -3 1 0 0 Z " fill="#B2ADF7" transform="translate(89,134)"/>
<path d="M0 0 C0.87785156 -0.00773438 1.75570312 -0.01546875 2.66015625 -0.0234375 C3.78744141 0.17378906 3.78744141 0.17378906 4.9375 0.375 C5.5975 1.365 6.2575 2.355 6.9375 3.375 C5.761875 3.189375 4.58625 3.00375 3.375 2.8125 C-0.67518594 2.29269004 -4.06124453 2.6247646 -8.0625 3.375 C-5.59150717 0.29237528 -3.89073159 -0.03438054 0 0 Z " fill="#4BD4EE" transform="translate(74.0625,10.625)"/>
<path d="M0 0 C4.7517398 0.43197635 6.92000054 1.32769295 10 5 C5.75354935 5 3.61475228 3.18249194 0 1 C0 0.67 0 0.34 0 0 Z " fill="#91C7F4" transform="translate(103,92)"/>
<path d="M0 0 C-1.175625 0.86625 -1.175625 0.86625 -2.375 1.75 C-4.80047244 3.82897637 -5.85694417 5.09040333 -7 8 C-7.25 5.1875 -7.25 5.1875 -7 2 C-4.34311663 -0.84011671 -3.7870049 -1.26233497 0 0 Z " fill="#A571F4" transform="translate(22,117)"/>
</svg>
